<svg width="28" height="28" viewBox="0 0 28 28" fill="none" xmlns="http://www.w3.org/2000/svg">
<path d="M7.72307 14C7.72307 14.5099 7.30991 14.9231 6.79999 14.9231H4.95384C4.44392 14.9231 4.03076 14.5099 4.03076 14C4.03076 13.4901 4.44392 13.0769 4.95384 13.0769H6.79999C7.30997 13.0769 7.72307 13.4901 7.72307 14ZM7.72307 8.09231C7.72307 7.58239 7.30991 7.16923 6.79999 7.16923H4.95384C4.44392 7.16923 4.03076 7.58239 4.03076 8.09231C4.03076 8.60223 4.44392 9.01538 4.95384 9.01538H6.79999C7.30997 9.01538 7.72307 8.60223 7.72307 8.09231ZM7.72307 19.9077C7.72307 19.3977 7.30991 18.9847 6.79999 18.9847H4.95384C4.44392 18.9847 4.03076 19.3977 4.03076 19.9077C4.03076 20.4177 4.44392 20.8308 4.95384 20.8308H6.79999C7.30997 20.8308 7.72307 20.4176 7.72307 19.9077ZM23.9692 4.95385V23.0462C23.9692 24.6774 22.6467 26 21.0155 26H8.09241C6.46117 26 5.13856 24.6774 5.13856 23.0462V21.5692H6.8001C7.71617 21.5692 8.46164 20.8237 8.46164 19.9077C8.46164 18.9916 7.71617 18.246 6.8001 18.246H5.13845V15.6614H6.79999C7.71607 15.6614 8.46153 14.916 8.46153 13.9999C8.46153 13.0838 7.71607 12.3384 6.79999 12.3384H5.13845V9.75374H6.79999C7.71607 9.75374 8.46153 9.00827 8.46153 8.0922C8.46153 7.17613 7.71607 6.43066 6.79999 6.43066H5.13845V4.95385C5.13845 3.32261 6.46106 2 8.0923 2H21.0154C22.6466 2 23.9692 3.32255 23.9692 4.95385ZM12.2595 10.7559C12.2595 12.3289 13.5348 13.6042 15.1077 13.6042C16.6807 13.6042 17.9559 12.3289 17.9559 10.7559C17.9559 9.183 16.6807 7.90764 15.1077 7.90764C13.5348 7.90769 12.2595 9.183 12.2595 10.7559ZM19.5385 17.7185C19.5385 15.9709 18.1214 14.5538 16.3738 14.5538H13.842C12.0941 14.5538 10.6769 15.971 10.6769 17.7185V18.9846H19.5385V17.7185Z" fill="#A3B1CB"/>
</svg>
