<svg width="20" height="20" viewBox="0 0 20 20" fill="none" xmlns="http://www.w3.org/2000/svg">
<path d="M4.26797 15.9979C3.01648 15.9979 2 14.8923 2 13.5331V6.46692C2 5.10565 3.01648 4 4.26797 4H15.732C16.9816 4 18 5.10565 18 6.46692V13.5331C18 14.8923 16.9835 16 15.732 16H4.26797V15.9979ZM2.76045 6.04503C2.72797 6.18427 2.71268 6.3256 2.71268 6.46484V13.531C2.71268 14.4787 3.39479 15.2206 4.26606 15.2206H15.7301C16.6014 15.2206 17.2835 14.4787 17.2835 13.531V6.46484C17.2835 6.3256 17.2682 6.18427 17.2357 6.04503L17.1459 5.65431L10.8178 12.1198C10.5942 12.3485 10.3019 12.4752 9.99809 12.4752C9.69429 12.4752 9.40387 12.3485 9.17841 12.1198L2.85025 5.65431L2.76045 6.04503ZM4.26797 4.7752C4.0406 4.7752 3.82278 4.82508 3.61834 4.92691L3.32219 5.07239L9.67327 11.5546C9.77263 11.6543 9.92166 11.6709 10 11.6709C10.0783 11.6709 10.2293 11.6564 10.3267 11.5546L16.6778 5.07239L16.3817 4.92691C16.1772 4.82716 15.9594 4.7752 15.732 4.7752H4.26797Z" fill="#182A4D" stroke="#182A4D" stroke-width="0.2"/>
</svg>
