<svg width="28" height="28" viewBox="0 0 28 28" fill="none" xmlns="http://www.w3.org/2000/svg">
<path d="M26.2985 12.3087C26.2979 12.3082 26.2973 12.3076 26.2967 12.307L15.6907 1.70142C15.2387 1.24915 14.6376 1 13.9983 1C13.359 1 12.7579 1.24895 12.3056 1.70122L1.70526 12.3014C1.70169 12.305 1.69812 12.3087 1.69455 12.3123C0.766201 13.246 0.767788 14.7609 1.69911 15.6922C2.1246 16.1179 2.68657 16.3645 3.28741 16.3903C3.31181 16.3927 3.33641 16.3939 3.3612 16.3939H3.78392V24.1989C3.78392 25.7434 5.04055 27 6.58541 27H10.7348C11.1553 27 11.4965 26.659 11.4965 26.2383V20.1191C11.4965 19.4144 12.0698 18.8411 12.7746 18.8411H15.222C15.9268 18.8411 16.5001 19.4144 16.5001 20.1191V26.2383C16.5001 26.659 16.841 27 17.2618 27H21.4112C22.956 27 24.2127 25.7434 24.2127 24.1989V16.3939H24.6046C25.2438 16.3939 25.8448 16.1449 26.2973 15.6926C27.2296 14.7597 27.23 13.2422 26.2985 12.3087Z" fill="#A3B1CB"/>
</svg>
