<svg width="20" height="20" viewBox="0 0 20 20" fill="none" xmlns="http://www.w3.org/2000/svg">
<path d="M14.5 18.2H5.5C4.12 18.2 3 17.08 3 15.7V8.70004C3 7.32004 4.12 6.20004 5.5 6.20004H14.5C15.88 6.20004 17 7.32004 17 8.70004V15.7C17 17.08 15.88 18.2 14.5 18.2ZM5.5 7.20004C4.675 7.20004 4 7.87504 4 8.70004V15.7C4 16.525 4.675 17.2 5.5 17.2H14.5C15.325 17.2 16 16.525 16 15.7V8.70004C16 7.87504 15.325 7.20004 14.5 7.20004H5.5Z" fill="#182A4D"/>
<path d="M5.49991 7.2C5.48491 7.2 5.46991 7.2 5.45491 7.2C5.17991 7.175 4.97991 6.935 4.99991 6.655C5.22991 4 7.37491 2 9.99991 2C12.6349 2 14.8299 4.05 14.9999 6.67C15.0199 6.945 14.8099 7.185 14.5349 7.2C14.2599 7.215 14.0199 7.01 14.0049 6.735C13.8649 4.64 12.1099 3 9.99991 3C7.89991 3 6.17991 4.61 5.99991 6.74C5.97491 7.005 5.75991 7.2 5.49991 7.2Z" fill="#182A4D"/>
<path d="M10 13.9301C9.52501 13.9301 9.13501 13.5401 9.13501 13.0651V11.3351C9.13501 10.8601 9.52501 10.4701 10 10.4701C10.475 10.4701 10.865 10.8601 10.865 11.3351V13.0651C10.865 13.5401 10.475 13.9301 10 13.9301Z" fill="#182A4D"/>
</svg>
