<svg width="28" height="28" viewBox="0 0 28 28" fill="none" xmlns="http://www.w3.org/2000/svg">
<path d="M14 2C6.83183 2 1.00003 7.09979 1.00003 13.3684C1.00003 15.5596 1.7133 17.6821 3.06617 19.5175C2.81007 22.2699 2.12367 24.3133 1.127 25.2813C0.995268 25.4093 0.962335 25.6051 1.04553 25.7667C1.1192 25.9112 1.27087 26 1.43337 26C1.4533 26 1.47323 25.9987 1.4936 25.9958C1.6691 25.9718 5.74589 25.4017 8.69472 23.7478C10.3691 24.4042 12.1527 24.7368 14 24.7368C21.1682 24.7368 27 19.6371 27 13.3684C27 7.09979 21.1682 2 14 2ZM7.93336 15.0526C6.97743 15.0526 6.20003 14.2973 6.20003 13.3684C6.20003 12.4396 6.97743 11.6842 7.93336 11.6842C8.88929 11.6842 9.66669 12.4396 9.66669 13.3684C9.66669 14.2973 8.88929 15.0526 7.93336 15.0526ZM14 15.0526C13.0441 15.0526 12.2667 14.2973 12.2667 13.3684C12.2667 12.4396 13.0441 11.6842 14 11.6842C14.9559 11.6842 15.7333 12.4396 15.7333 13.3684C15.7333 14.2973 14.9559 15.0526 14 15.0526ZM20.0667 15.0526C19.1107 15.0526 18.3333 14.2973 18.3333 13.3684C18.3333 12.4396 19.1107 11.6842 20.0667 11.6842C21.0226 11.6842 21.8 12.4396 21.8 13.3684C21.8 14.2973 21.0226 15.0526 20.0667 15.0526Z" fill="#A3B1CB"/>
</svg>
