<svg width="18" height="18" viewBox="0 0 18 18" fill="none" xmlns="http://www.w3.org/2000/svg">
<path d="M9.02304 1C11.1902 1 12.9885 2.71901 12.9885 4.79063V5.84848C12.9885 7.92011 11.1902 9.59504 9.02304 9.59504C6.80978 9.59504 5.05762 7.92011 5.05762 5.84848V4.79063C5.05762 2.71901 6.80978 1 9.02304 1ZM9.02304 1.88154C7.31698 1.88154 5.97981 3.20386 5.97981 4.79063V5.84848C5.97981 7.43526 7.31698 8.7135 9.02304 8.7135C10.683 8.7135 12.0663 7.43526 12.0663 5.84848V4.79063C12.0663 3.20386 10.683 1.88154 9.02304 1.88154Z" fill="#182A4D" stroke="#182A4D" stroke-width="0.1"/>
<path d="M4.59654 9.63914C4.82709 9.55098 5.10375 9.68321 5.14986 9.94768C5.24207 10.1681 5.10375 10.4325 4.8732 10.4766C3.12104 10.9615 1.92219 12.5042 1.92219 14.2232V16.1626H16.0778V14.2232C16.0778 12.5042 14.879 10.9615 13.1729 10.4766C12.8963 10.4325 12.7579 10.1681 12.8501 9.94768C12.8963 9.68321 13.1729 9.55098 13.4035 9.63914C15.5245 10.2121 17 12.1075 17 14.2232V16.5593C17 16.8237 16.8156 17 16.5389 17H1.4611C1.23055 17 1 16.8237 1 16.5593V14.2232C1 12.1075 2.4755 10.2121 4.59654 9.63914Z" fill="#182A4D" stroke="#182A4D" stroke-width="0.1"/>
</svg>
