<svg width="28" height="28" viewBox="0 0 28 28" fill="none" xmlns="http://www.w3.org/2000/svg">
<path d="M12.6059 15.2235C14.9438 17.5615 17.5528 18.7592 18.4198 17.8918L19.5144 16.7972C20.3485 15.963 21.7009 15.9629 22.5352 16.797L22.5354 16.7972L24.952 19.2139C26.1199 20.3816 26.1201 22.2749 24.9524 23.4428C24.9523 23.4429 24.9522 23.443 24.952 23.4431L23.252 25.1431C21.1461 27.2491 14.8351 24.3528 9.15587 18.6736C6.31762 15.8325 4.17362 12.8353 3.00298 10.2843C1.83235 7.73333 1.63366 5.62934 2.68765 4.57602L4.38766 2.87601C5.55536 1.70814 7.4487 1.70797 8.61657 2.87567L8.61691 2.87601L11.0336 5.29268C11.8678 6.12677 11.8679 7.47916 11.0338 8.31342C11.0337 8.31348 11.0336 8.31359 11.0336 8.31365L9.93894 9.40828C9.0706 10.2766 10.2669 12.8853 12.6059 15.2235Z" fill="#A3B1CB"/>
</svg>
