<svg width="28" height="28" viewBox="0 0 28 28" fill="none" xmlns="http://www.w3.org/2000/svg">
<path d="M27.8869 12.2453C27.7037 10.8324 26.2325 9.86527 24.8244 10.3926C24.297 10.5921 23.6624 10.2958 23.4244 9.76377C23.1397 9.12912 22.7909 8.52127 22.3849 7.95662C22.0232 7.45377 22.092 6.79577 22.5412 6.42477C23.0779 5.98377 23.3777 5.33162 23.3637 4.63742C23.3497 3.93157 23.0172 3.28177 22.4514 2.85242C21.5204 2.14777 20.5054 1.56092 19.4332 1.10942C19.1439 0.988066 18.8406 0.92627 18.5314 0.92627C17.4137 0.92627 16.471 1.72077 16.289 2.81512C16.1934 3.39027 15.6485 3.78112 15.0349 3.71462C14.3535 3.64227 13.6442 3.64227 12.964 3.71462C12.3526 3.78112 11.8055 3.39027 11.7099 2.81512C11.5279 1.72077 10.5852 0.92627 9.4675 0.92627C9.15835 0.92627 8.855 0.988121 8.56685 1.10942C7.4935 1.56092 6.4785 2.14657 5.5475 2.85242C4.98285 3.28177 4.65035 3.93157 4.63635 4.63627C4.62235 5.33162 4.9222 5.98262 5.45885 6.42592C5.9092 6.79577 5.9757 7.45377 5.6152 7.95542C5.2092 8.52007 4.8592 9.12792 4.57455 9.76257C4.33656 10.2946 3.74855 10.6072 3.1617 10.3867C2.90505 10.2911 2.63785 10.2421 2.3672 10.2421C1.22855 10.2421 0.260203 11.1031 0.112055 12.2452C0.0385 12.8239 0 13.4154 0 13.9999C0 14.5844 0.0385 15.1759 0.113148 15.7546C0.295148 17.1662 1.76515 18.1334 3.17565 17.6072C3.7018 17.4077 4.33765 17.7041 4.57565 18.2361C4.8603 18.8707 5.20915 19.4786 5.61515 20.0432C5.9768 20.5461 5.908 21.2041 5.4588 21.5751C4.92215 22.0161 4.6223 22.6682 4.6363 23.3624C4.6503 24.0683 4.9828 24.7181 5.54865 25.1474C6.47965 25.8521 7.49465 26.4389 8.5668 26.8904C8.85615 27.0118 9.15945 27.0736 9.46865 27.0736C10.5863 27.0736 11.529 26.2791 11.711 25.1847C11.8066 24.6096 12.3526 24.2246 12.9651 24.2852C13.6453 24.3576 14.3546 24.3576 15.036 24.2852C15.6496 24.2234 16.1945 24.6096 16.2901 25.1847C16.4721 26.2791 17.4148 27.0724 18.5325 27.0736C18.8416 27.0736 19.145 27.0117 19.4331 26.8904C20.5053 26.4389 21.5215 25.8533 22.4513 25.1474C23.0159 24.7181 23.3496 24.0683 23.3636 23.3636C23.3776 22.6682 23.0778 22.0172 22.5411 21.5739C22.0908 21.2041 22.0243 20.5461 22.3848 20.0444C22.7908 19.4798 23.1408 18.8719 23.4254 18.2373C23.6634 17.7041 24.2526 17.3926 24.8383 17.6131C25.0949 17.71 25.3621 17.759 25.6328 17.759C26.7714 17.759 27.7398 16.898 27.8879 15.7558C27.9615 15.1701 28 14.5809 28 13.9999C28 13.4189 27.9615 12.8298 27.8869 12.2453ZM14 18.6666C11.4264 18.6666 9.33335 16.5736 9.33335 13.9999C9.33335 11.4263 11.4264 9.33327 14 9.33327C16.5736 9.33327 18.6666 11.4263 18.6666 13.9999C18.6666 16.5736 16.5736 18.6666 14 18.6666Z" fill="#A3B1CB"/>
</svg>
