<svg width="24" height="24" viewBox="0 0 24 24" fill="none" xmlns="http://www.w3.org/2000/svg">
<path d="M21.1304 5.73952H18.6261L17.2435 3.65256C16.7217 2.86996 15.8087 2.40039 14.8696 2.40039H9.13043C8.1913 2.40039 7.27826 2.86996 6.75652 3.65256L5.37391 5.73952H2.86957C1.27826 5.73952 0 7.01778 0 8.60909V18.7308C0 20.3221 1.27826 21.6004 2.86957 21.6004H21.1304C22.7217 21.6004 24 20.3221 24 18.7308V8.60909C24 7.01778 22.7217 5.73952 21.1304 5.73952ZM12 19.2526C8.42609 19.2526 5.53043 16.3569 5.53043 12.783C5.53043 9.20909 8.42609 6.33952 12 6.33952C15.5739 6.33952 18.4696 9.23517 18.4696 12.8091C18.4696 16.3569 15.5739 19.2526 12 19.2526ZM20.7652 9.783C20.7391 9.783 20.713 9.783 20.6609 9.783H19.6174C19.1478 9.75691 18.7826 9.36561 18.8087 8.89604C18.8348 8.45256 19.1739 8.11343 19.6174 8.08735H20.6609C21.1304 8.06126 21.5217 8.42648 21.5478 8.89604C21.5739 9.36561 21.2348 9.75691 20.7652 9.783Z" fill="#182A4D"/>
<path d="M12 7.59082C9.12332 7.59082 6.77655 9.9376 6.77655 12.8143C6.77655 15.691 9.12332 17.9999 12 17.9999C14.8767 17.9999 17.2235 15.6531 17.2235 12.7764C17.2235 9.89975 14.8767 7.59082 12 7.59082Z" fill="#182A4D"/>
</svg>
