<svg width="24" height="24" viewBox="0 0 24 24" fill="none" xmlns="http://www.w3.org/2000/svg">
<g clip-path="url(#clip0)">
<path d="M6.24947 18.5313C4.64854 18.5313 3.2245 17.5062 2.70739 15.9802L2.67242 15.8652C2.55047 15.4611 2.49938 15.1212 2.49938 14.7812V7.96289L0.0733573 16.0611C-0.238662 17.2522 0.472354 18.4871 1.66532 18.8162L17.1288 22.9574C17.3218 23.0074 17.5148 23.0314 17.7048 23.0314C18.7008 23.0314 19.6108 22.3703 19.8659 21.3962L20.7668 18.5313H6.24947Z" fill="#182A4D"/>
<path d="M8.99965 8.03049C10.1027 8.03049 10.9996 7.13344 10.9996 6.03038C10.9996 4.92733 10.1027 4.03027 8.99965 4.03027C7.8966 4.03027 6.99954 4.92733 6.99954 6.03038C6.99954 7.13344 7.8966 8.03049 8.99965 8.03049Z" fill="#182A4D"/>
<path d="M21.4999 1.03027H6.49948C5.12158 1.03027 3.99948 2.15237 3.99948 3.53046V14.5306C3.99948 15.9087 5.12158 17.0308 6.49948 17.0308H21.4999C22.8779 17.0308 24 15.9087 24 14.5306V3.53046C24 2.15237 22.8779 1.03027 21.4999 1.03027ZM6.49948 3.03038H21.4999C21.776 3.03038 21.9999 3.25433 21.9999 3.53046V10.6296L18.8409 6.94344C18.5058 6.55049 18.0208 6.34046 17.4998 6.32856C16.9818 6.33149 16.4958 6.56148 16.1638 6.95956L12.4496 11.4176L11.2396 10.2105C10.5557 9.52658 9.44261 9.52658 8.75961 10.2105L5.99959 12.9696V3.53046C5.99959 3.25433 6.22354 3.03038 6.49948 3.03038Z" fill="#182A4D"/>
</g>
<defs>
<clipPath id="clip0">
<rect width="24" height="24" fill="white"/>
</clipPath>
</defs>
</svg>
