<svg width="24" height="24" viewBox="0 0 24 24" fill="none" xmlns="http://www.w3.org/2000/svg">
<g clip-path="url(#clip0)">
<path d="M19.6801 12.3949C19.6801 11.9149 19.313 11.5479 18.833 11.5479C18.353 11.5479 17.986 11.9149 17.986 12.3949C17.986 15.6984 15.3036 18.3808 12.0001 18.3808C8.69654 18.3808 6.01419 15.6984 6.01419 12.3949C6.01419 11.9149 5.64713 11.5479 5.16713 11.5479C4.68713 11.5479 4.32007 11.9149 4.32007 12.3949C4.32007 16.3196 7.25654 19.6232 11.153 20.0467V22.3055H8.07536C7.59536 22.3055 7.2283 22.6726 7.2283 23.1526C7.2283 23.6326 7.59536 23.9996 8.07536 23.9996H15.9248C16.4048 23.9996 16.7718 23.6326 16.7718 23.1526C16.7718 22.6726 16.4048 22.3055 15.9248 22.3055H12.8471V20.0467C16.7436 19.6232 19.6801 16.3196 19.6801 12.3949Z" fill="#182A4D"/>
<path d="M12 0C9.4024 0 7.28476 2.11765 7.28476 4.71529V12.3671C7.28476 14.9929 9.4024 17.0824 12 17.1106C14.5977 17.1106 16.7153 14.9929 16.7153 12.3953V4.71529C16.7153 2.11765 14.5977 0 12 0Z" fill="#182A4D"/>
</g>
<defs>
<clipPath id="clip0">
<rect width="24" height="24" fill="white"/>
</clipPath>
</defs>
</svg>
